<svg xmlns="http://www.w3.org/2000/svg" xmlns:xlink="http://www.w3.org/1999/xlink" viewBox="0,0,256,256" width="50px" height="50px" fill-rule="nonzero"><g fill="#ffffff" fill-rule="nonzero" stroke="none" stroke-width="1" stroke-linecap="butt" stroke-linejoin="miter" stroke-miterlimit="10" stroke-dasharray="" stroke-dashoffset="0" font-family="none" font-weight="none" font-size="none" text-anchor="none" style="mix-blend-mode: normal"><g transform="scale(5.12,5.12)"><path d="M25,2c-12.683,0 -23,10.317 -23,23c0,12.683 10.317,23 23,23c12.683,0 23,-10.317 23,-23c0,-12.683 -10.317,-23 -23,-23zM25,4c11.579,0 21,9.421 21,21c0,11.579 -9.421,21 -21,21c-11.579,0 -21,-9.421 -21,-21c0,-11.579 9.421,-21 21,-21zM27.57031,10.04297c-7.751,0 -14.63867,7.18691 -14.63867,17.12891c0,7.696 4.39478,12.78125 11.17578,12.78125c7.197,0 11.35938,-7.16038 11.35938,-9.48437c0,-0.514 -0.26311,-0.75 -0.53711,-0.75c-0.19,0 -0.35725,0.15977 -0.53125,0.50977c-1.963,3.98 -5.35334,6.79688 -9.27734,6.79688c-4.537,0 -7.3457,-4.09591 -7.3457,-9.75391c0,-9.583 5.3393,-15.12305 10.0293,-15.12305c2.192,0 3.53125,1.37636 3.53125,3.56836c0,2.601 -1.47852,3.97848 -1.47852,4.89648c0,0.412 0.25567,0.66016 0.76367,0.66016c2.041,0 4.43555,-2.3452 4.43555,-5.6582c0,-3.212 -2.79633,-5.57226 -7.48633,-5.57226z"></path></g></g></svg>